<svg xmlns="http://www.w3.org/2000/svg" xmlns:xlink="http://www.w3.org/1999/xlink" width="500" zoomAndPan="magnify" viewBox="0 0 375 374.999991" height="500" preserveAspectRatio="xMidYMid meet" version="1.0"><defs><clipPath id="0fe94c5352"><path d="M 187.5 0 C 83.945312 0 0 83.945312 0 187.5 C 0 291.054688 83.945312 375 187.5 375 C 291.054688 375 375 291.054688 375 187.5 C 375 83.945312 291.054688 0 187.5 0 Z M 187.5 0 " clip-rule="nonzero"/></clipPath><clipPath id="d64e3e9dd8"><path d="M 99 32.785156 L 274 32.785156 L 274 344 L 99 344 Z M 99 32.785156 " clip-rule="nonzero"/></clipPath><clipPath id="3f0ba04770"><path d="M 219 158 L 241 158 L 241 179 L 219 179 Z M 219 158 " clip-rule="nonzero"/></clipPath><clipPath id="15d818dcae"><path d="M 193.003906 156.328125 L 241.6875 158.878906 L 240.589844 179.847656 L 191.90625 177.296875 Z M 193.003906 156.328125 " clip-rule="nonzero"/></clipPath><clipPath id="8a991d8b03"><path d="M 241.546875 158.871094 L 192.863281 156.320312 L 191.765625 177.289062 L 240.449219 179.84375 Z M 241.546875 158.871094 " clip-rule="nonzero"/></clipPath><clipPath id="ff538fbf53"><path d="M 241.546875 158.871094 L 192.863281 156.320312 L 191.765625 177.289062 L 240.449219 179.84375 Z M 241.546875 158.871094 " clip-rule="nonzero"/></clipPath><clipPath id="7013056895"><path d="M 218 158 L 241 158 L 241 180 L 218 180 Z M 218 158 " clip-rule="nonzero"/></clipPath><clipPath id="5cd37f3443"><path d="M 193.003906 156.328125 L 241.6875 158.878906 L 240.589844 179.847656 L 191.90625 177.296875 Z M 193.003906 156.328125 " clip-rule="nonzero"/></clipPath><clipPath id="03edc31543"><path d="M 241.546875 158.871094 L 192.863281 156.320312 L 191.765625 177.289062 L 240.449219 179.84375 Z M 241.546875 158.871094 " clip-rule="nonzero"/></clipPath><clipPath id="6f4bcd60c4"><path d="M 241.546875 158.871094 L 192.863281 156.320312 L 191.765625 177.289062 L 240.449219 179.84375 Z M 241.546875 158.871094 " clip-rule="nonzero"/></clipPath><clipPath id="504cce397d"><path d="M 241.546875 158.910156 L 219.191406 157.738281 L 218.097656 178.628906 L 240.449219 179.800781 Z M 241.546875 158.910156 " clip-rule="nonzero"/></clipPath><clipPath id="f37aa822df"><path d="M 227 160 L 237 160 L 237 170 L 227 170 Z M 227 160 " clip-rule="nonzero"/></clipPath><clipPath id="282e4d32d3"><path d="M 193.003906 156.328125 L 241.6875 158.878906 L 240.589844 179.847656 L 191.90625 177.296875 Z M 193.003906 156.328125 " clip-rule="nonzero"/></clipPath><clipPath id="98d2368a4c"><path d="M 241.546875 158.871094 L 192.863281 156.320312 L 191.765625 177.289062 L 240.449219 179.84375 Z M 241.546875 158.871094 " clip-rule="nonzero"/></clipPath><clipPath id="f835c3d00c"><path d="M 241.546875 158.871094 L 192.863281 156.320312 L 191.765625 177.289062 L 240.449219 179.84375 Z M 241.546875 158.871094 " clip-rule="nonzero"/></clipPath><clipPath id="74abcd95bd"><path d="M 228 161 L 233 161 L 233 165 L 228 165 Z M 228 161 " clip-rule="nonzero"/></clipPath><clipPath id="f7d22c04b5"><path d="M 193.003906 156.328125 L 241.6875 158.878906 L 240.589844 179.847656 L 191.90625 177.296875 Z M 193.003906 156.328125 " clip-rule="nonzero"/></clipPath><clipPath id="355952aed2"><path d="M 241.546875 158.871094 L 192.863281 156.320312 L 191.765625 177.289062 L 240.449219 179.84375 Z M 241.546875 158.871094 " clip-rule="nonzero"/></clipPath><clipPath id="20419c1bf5"><path d="M 241.546875 158.871094 L 192.863281 156.320312 L 191.765625 177.289062 L 240.449219 179.84375 Z M 241.546875 158.871094 " clip-rule="nonzero"/></clipPath><clipPath id="d1c3685ccd"><path d="M 237 165 L 239 165 L 239 175 L 237 175 Z M 237 165 " clip-rule="nonzero"/></clipPath><clipPath id="a2ad0bc3d2"><path d="M 193.003906 156.328125 L 241.6875 158.878906 L 240.589844 179.847656 L 191.90625 177.296875 Z M 193.003906 156.328125 " clip-rule="nonzero"/></clipPath><clipPath id="a080b308f3"><path d="M 241.546875 158.871094 L 192.863281 156.320312 L 191.765625 177.289062 L 240.449219 179.84375 Z M 241.546875 158.871094 " clip-rule="nonzero"/></clipPath><clipPath id="3fb441bf44"><path d="M 241.546875 158.871094 L 192.863281 156.320312 L 191.765625 177.289062 L 240.449219 179.84375 Z M 241.546875 158.871094 " clip-rule="nonzero"/></clipPath><clipPath id="26ce5c936c"><path d="M 193 157 L 215 157 L 215 178 L 193 178 Z M 193 157 " clip-rule="nonzero"/></clipPath><clipPath id="7fa5b43d28"><path d="M 193.003906 156.328125 L 241.6875 158.878906 L 240.589844 179.847656 L 191.90625 177.296875 Z M 193.003906 156.328125 " clip-rule="nonzero"/></clipPath><clipPath id="1d4462ac2b"><path d="M 241.546875 158.871094 L 192.863281 156.320312 L 191.765625 177.289062 L 240.449219 179.84375 Z M 241.546875 158.871094 " clip-rule="nonzero"/></clipPath><clipPath id="874fa26d42"><path d="M 241.546875 158.871094 L 192.863281 156.320312 L 191.765625 177.289062 L 240.449219 179.84375 Z M 241.546875 158.871094 " clip-rule="nonzero"/></clipPath><clipPath id="5954fb57b4"><path d="M 192 156 L 215 156 L 215 178 L 192 178 Z M 192 156 " clip-rule="nonzero"/></clipPath><clipPath id="127813b3eb"><path d="M 193.003906 156.328125 L 241.6875 158.878906 L 240.589844 179.847656 L 191.90625 177.296875 Z M 193.003906 156.328125 " clip-rule="nonzero"/></clipPath><clipPath id="ea03ad81f7"><path d="M 241.546875 158.871094 L 192.863281 156.320312 L 191.765625 177.289062 L 240.449219 179.84375 Z M 241.546875 158.871094 " clip-rule="nonzero"/></clipPath><clipPath id="77ebd23355"><path d="M 241.546875 158.871094 L 192.863281 156.320312 L 191.765625 177.289062 L 240.449219 179.84375 Z M 241.546875 158.871094 " clip-rule="nonzero"/></clipPath><clipPath id="2446331ac9"><path d="M 215.382812 157.535156 L 193.039062 156.367188 L 191.945312 177.257812 L 214.289062 178.429688 Z M 215.382812 157.535156 " clip-rule="nonzero"/></clipPath><clipPath id="4e830ea3be"><path d="M 194 165 L 205 165 L 205 175 L 194 175 Z M 194 165 " clip-rule="nonzero"/></clipPath><clipPath id="440e8a0f63"><path d="M 193.003906 156.328125 L 241.6875 158.878906 L 240.589844 179.847656 L 191.90625 177.296875 Z M 193.003906 156.328125 " clip-rule="nonzero"/></clipPath><clipPath id="b8c94861e5"><path d="M 241.546875 158.871094 L 192.863281 156.320312 L 191.765625 177.289062 L 240.449219 179.84375 Z M 241.546875 158.871094 " clip-rule="nonzero"/></clipPath><clipPath id="aed02eeae7"><path d="M 241.546875 158.871094 L 192.863281 156.320312 L 191.765625 177.289062 L 240.449219 179.84375 Z M 241.546875 158.871094 " clip-rule="nonzero"/></clipPath><clipPath id="019629eca8"><path d="M 196 166 L 200 166 L 200 170 L 196 170 Z M 196 166 " clip-rule="nonzero"/></clipPath><clipPath id="c9fa896f41"><path d="M 193.003906 156.328125 L 241.6875 158.878906 L 240.589844 179.847656 L 191.90625 177.296875 Z M 193.003906 156.328125 " clip-rule="nonzero"/></clipPath><clipPath id="d7febd31f0"><path d="M 241.546875 158.871094 L 192.863281 156.320312 L 191.765625 177.289062 L 240.449219 179.84375 Z M 241.546875 158.871094 " clip-rule="nonzero"/></clipPath><clipPath id="125caf7bb0"><path d="M 241.546875 158.871094 L 192.863281 156.320312 L 191.765625 177.289062 L 240.449219 179.84375 Z M 241.546875 158.871094 " clip-rule="nonzero"/></clipPath><clipPath id="21c8a69628"><path d="M 210 163 L 213 163 L 213 173 L 210 173 Z M 210 163 " clip-rule="nonzero"/></clipPath><clipPath id="5a0ba66628"><path d="M 193.003906 156.328125 L 241.6875 158.878906 L 240.589844 179.847656 L 191.90625 177.296875 Z M 193.003906 156.328125 " clip-rule="nonzero"/></clipPath><clipPath id="fac2bf5b53"><path d="M 241.546875 158.871094 L 192.863281 156.320312 L 191.765625 177.289062 L 240.449219 179.84375 Z M 241.546875 158.871094 " clip-rule="nonzero"/></clipPath><clipPath id="700b14109c"><path d="M 241.546875 158.871094 L 192.863281 156.320312 L 191.765625 177.289062 L 240.449219 179.84375 Z M 241.546875 158.871094 " clip-rule="nonzero"/></clipPath><clipPath id="8ea9182dc9"><path d="M 247 200 L 253 200 L 253 207 L 247 207 Z M 247 200 " clip-rule="nonzero"/></clipPath><clipPath id="c03365259b"><path d="M 207.476562 187.5 L 254.566406 200.117188 L 247.769531 225.472656 L 200.679688 212.855469 Z M 207.476562 187.5 " clip-rule="nonzero"/></clipPath><clipPath id="5dea3db96b"><path d="M 207.476562 187.5 L 254.566406 200.117188 L 247.769531 225.472656 L 200.679688 212.855469 Z M 207.476562 187.5 " clip-rule="nonzero"/></clipPath><clipPath id="3da6f3c892"><path d="M 207.476562 187.5 L 254.566406 200.117188 L 247.769531 225.472656 L 200.679688 212.855469 Z M 207.476562 187.5 " clip-rule="nonzero"/></clipPath><clipPath id="38f7188c4a"><path d="M 212 192 L 220 192 L 220 196 L 212 196 Z M 212 192 " clip-rule="nonzero"/></clipPath><clipPath id="b1b2b9369a"><path d="M 207.476562 187.5 L 254.566406 200.117188 L 247.769531 225.472656 L 200.679688 212.855469 Z M 207.476562 187.5 " clip-rule="nonzero"/></clipPath><clipPath id="81a352e8d0"><path d="M 207.476562 187.5 L 254.566406 200.117188 L 247.769531 225.472656 L 200.679688 212.855469 Z M 207.476562 187.5 " clip-rule="nonzero"/></clipPath><clipPath id="7e9daf5dfd"><path d="M 207.476562 187.5 L 254.566406 200.117188 L 247.769531 225.472656 L 200.679688 212.855469 Z M 207.476562 187.5 " clip-rule="nonzero"/></clipPath><clipPath id="8c6b7bcdf0"><path d="M 224 208 L 234 208 L 234 212 L 224 212 Z M 224 208 " clip-rule="nonzero"/></clipPath><clipPath id="99bbe74027"><path d="M 207.476562 187.5 L 254.566406 200.117188 L 247.769531 225.472656 L 200.679688 212.855469 Z M 207.476562 187.5 " clip-rule="nonzero"/></clipPath><clipPath id="f4cfbd968a"><path d="M 207.476562 187.5 L 254.566406 200.117188 L 247.769531 225.472656 L 200.679688 212.855469 Z M 207.476562 187.5 " clip-rule="nonzero"/></clipPath><clipPath id="f3ef050c85"><path d="M 207.476562 187.5 L 254.566406 200.117188 L 247.769531 225.472656 L 200.679688 212.855469 Z M 207.476562 187.5 " clip-rule="nonzero"/></clipPath><clipPath id="734afa5453"><path d="M 250 199 L 255 199 L 255 204 L 250 204 Z M 250 199 " clip-rule="nonzero"/></clipPath><clipPath id="015fd903cb"><path d="M 207.476562 187.5 L 254.566406 200.117188 L 247.769531 225.472656 L 200.679688 212.855469 Z M 207.476562 187.5 " clip-rule="nonzero"/></clipPath><clipPath id="6aae3c2423"><path d="M 207.476562 187.5 L 254.566406 200.117188 L 247.769531 225.472656 L 200.679688 212.855469 Z M 207.476562 187.5 " clip-rule="nonzero"/></clipPath><clipPath id="860336a0fe"><path d="M 207.476562 187.5 L 254.566406 200.117188 L 247.769531 225.472656 L 200.679688 212.855469 Z M 207.476562 187.5 " clip-rule="nonzero"/></clipPath><clipPath id="0b12b17182"><path d="M 210 188 L 215 188 L 215 193 L 210 193 Z M 210 188 " clip-rule="nonzero"/></clipPath><clipPath id="a38ea92384"><path d="M 207.476562 187.5 L 254.566406 200.117188 L 247.769531 225.472656 L 200.679688 212.855469 Z M 207.476562 187.5 " clip-rule="nonzero"/></clipPath><clipPath id="74dca4fa18"><path d="M 207.476562 187.5 L 254.566406 200.117188 L 247.769531 225.472656 L 200.679688 212.855469 Z M 207.476562 187.5 " clip-rule="nonzero"/></clipPath><clipPath id="d89c8a08d3"><path d="M 207.476562 187.5 L 254.566406 200.117188 L 247.769531 225.472656 L 200.679688 212.855469 Z M 207.476562 187.5 " clip-rule="nonzero"/></clipPath><clipPath id="977f28bd15"><path d="M 205 196 L 224 196 L 224 215 L 205 215 Z M 205 196 " clip-rule="nonzero"/></clipPath><clipPath id="3a32751b00"><path d="M 207.476562 187.5 L 254.566406 200.117188 L 247.769531 225.472656 L 200.679688 212.855469 Z M 207.476562 187.5 " clip-rule="nonzero"/></clipPath><clipPath id="7e5cc6c96b"><path d="M 207.476562 187.5 L 254.566406 200.117188 L 247.769531 225.472656 L 200.679688 212.855469 Z M 207.476562 187.5 " clip-rule="nonzero"/></clipPath><clipPath id="3d99d87e83"><path d="M 207.476562 187.5 L 254.566406 200.117188 L 247.769531 225.472656 L 200.679688 212.855469 Z M 207.476562 187.5 " clip-rule="nonzero"/></clipPath><clipPath id="12a689e7e6"><path d="M 205 195 L 225 195 L 225 215 L 205 215 Z M 205 195 " clip-rule="nonzero"/></clipPath><clipPath id="c0457ac59f"><path d="M 207.476562 187.5 L 254.566406 200.117188 L 247.769531 225.472656 L 200.679688 212.855469 Z M 207.476562 187.5 " clip-rule="nonzero"/></clipPath><clipPath id="799241fdcc"><path d="M 207.476562 187.5 L 254.566406 200.117188 L 247.769531 225.472656 L 200.679688 212.855469 Z M 207.476562 187.5 " clip-rule="nonzero"/></clipPath><clipPath id="147f25da7c"><path d="M 207.476562 187.5 L 254.566406 200.117188 L 247.769531 225.472656 L 200.679688 212.855469 Z M 207.476562 187.5 " clip-rule="nonzero"/></clipPath><clipPath id="258ba4568c"><path d="M 214 192 L 252 192 L 252 208 L 214 208 Z M 214 192 " clip-rule="nonzero"/></clipPath><clipPath id="264eb98b49"><path d="M 207.476562 187.5 L 254.566406 200.117188 L 247.769531 225.472656 L 200.679688 212.855469 Z M 207.476562 187.5 " clip-rule="nonzero"/></clipPath><clipPath id="ba00e754c1"><path d="M 207.476562 187.5 L 254.566406 200.117188 L 247.769531 225.472656 L 200.679688 212.855469 Z M 207.476562 187.5 " clip-rule="nonzero"/></clipPath><clipPath id="2475c8e8f0"><path d="M 207.476562 187.5 L 254.566406 200.117188 L 247.769531 225.472656 L 200.679688 212.855469 Z M 207.476562 187.5 " clip-rule="nonzero"/></clipPath><clipPath id="68f17aed89"><path d="M 209 199 L 219 199 L 219 214 L 209 214 Z M 209 199 " clip-rule="nonzero"/></clipPath><clipPath id="0a1453229b"><path d="M 207.476562 187.5 L 254.566406 200.117188 L 247.769531 225.472656 L 200.679688 212.855469 Z M 207.476562 187.5 " clip-rule="nonzero"/></clipPath><clipPath id="ae2979acb2"><path d="M 207.476562 187.5 L 254.566406 200.117188 L 247.769531 225.472656 L 200.679688 212.855469 Z M 207.476562 187.5 " clip-rule="nonzero"/></clipPath><clipPath id="f16f01ab20"><path d="M 207.476562 187.5 L 254.566406 200.117188 L 247.769531 225.472656 L 200.679688 212.855469 Z M 207.476562 187.5 " clip-rule="nonzero"/></clipPath></defs><g clip-path="url(#0fe94c5352)"><rect x="-37.5" width="450" fill="#cbc7b7" y="-37.499999" height="449.999989" fill-opacity="1"/></g><path fill="#5f432c" d="M 187.5 0 C 84.113281 0 0 84.117188 0 187.5 C 0 290.890625 84.113281 375 187.5 375 C 290.886719 375 375 290.890625 375 187.5 C 375 84.117188 290.886719 0 187.5 0 Z M 187.5 370.113281 C 86.808594 370.113281 4.890625 288.191406 4.890625 187.503906 C 4.890625 86.808594 86.808594 4.890625 187.5 4.890625 C 288.191406 4.890625 370.113281 86.8125 370.113281 187.503906 C 370.113281 288.195312 288.191406 370.113281 187.5 370.113281 Z M 187.5 370.113281 " fill-opacity="1" fill-rule="nonzero"/><path fill="#5f432c" d="M 187.5 14.640625 C 92.183594 14.640625 14.636719 92.1875 14.636719 187.5 C 14.636719 282.820312 92.183594 360.363281 187.5 360.363281 C 282.820312 360.363281 360.359375 282.816406 360.359375 187.5 C 360.359375 92.1875 282.816406 14.640625 187.5 14.640625 Z M 187.5 14.640625 " fill-opacity="1" fill-rule="nonzero"/><g clip-path="url(#d64e3e9dd8)"><path fill="#cbc7b7" d="M 104.203125 51.007812 C 104.378906 50.582031 104.566406 50.0625 105.324219 50.03125 C 103.894531 63.050781 100.179688 78.945312 110.703125 89.242188 C 111.84375 90.054688 113.601562 92.148438 115.128906 91.425781 C 115.0625 89.867188 114.726562 88.367188 114.292969 86.871094 C 111.347656 77.128906 110.425781 66.890625 111.570312 56.785156 C 111.898438 52.4375 113.730469 37.058594 117.605469 35.148438 C 117.347656 41.902344 113.359375 80.824219 123.035156 79.398438 C 132.082031 78.628906 137.261719 70.320312 143.609375 64.886719 C 148.289062 60.632812 152.386719 55.898438 155.851562 50.609375 C 156.78125 49.304688 157.527344 47.917969 158.953125 47.050781 C 159.5 48.097656 159.0625 48.867188 158.757812 49.601562 C 156.222656 57.054688 150.316406 62.636719 147.21875 69.6875 C 146.441406 73.632812 156.472656 69.878906 158.140625 69.0625 C 163.796875 66.828125 167.671875 62.324219 170.703125 57.1875 C 170.9375 56.839844 171.089844 56.335938 171.886719 56.394531 C 170.824219 68.164062 158.746094 76.605469 147.847656 78.65625 C 142.820312 79.902344 137.445312 80.8125 133.3125 84.167969 C 121.734375 93.101562 129.847656 110.816406 140.902344 116.300781 C 148 120.019531 160.765625 128.894531 168.460938 128.523438 C 167.914062 123.464844 164.625 117.417969 167.042969 112.519531 C 168.003906 112.945312 168.171875 113.8125 168.449219 114.550781 C 169.90625 118.414062 171.320312 122.289062 172.761719 126.15625 C 173.707031 128.398438 174.132812 131.089844 176.378906 132.453125 C 179.617188 134.546875 182.796875 136.71875 186.015625 138.847656 C 188.242188 140.097656 189.652344 142.121094 191.371094 143.933594 C 191.996094 144.523438 192.707031 144.761719 193.625 144.691406 C 197.445312 144.308594 201.285156 144.847656 204.988281 145.753906 C 215.199219 134.109375 204.070312 129.371094 205.835938 117.296875 C 205.914062 116.53125 206.03125 115.734375 206.835938 115.332031 C 207.679688 115.5625 207.792969 116.292969 208.046875 116.914062 C 209.253906 119.839844 210.417969 122.78125 211.652344 125.691406 C 212.359375 127.644531 213.886719 128.996094 215.570312 130.125 C 217.015625 131.054688 218.125 129.007812 219.09375 128.1875 C 221.605469 125.4375 224.242188 122.820312 227.222656 120.578125 C 234.65625 114.382812 241.601562 113.285156 238.164062 101.78125 C 236.238281 92.949219 226.261719 77.246094 227.96875 69.75 C 229.011719 70.4375 229.4375 71.3125 229.867188 72.152344 C 234.476562 81.121094 239.304688 90.417969 246.324219 97.746094 C 256.320312 106.019531 258.007812 88.304688 255.734375 81.925781 C 254.566406 76.828125 251.179688 73.300781 246.324219 71.425781 C 240 68.5 228.421875 60.296875 229.578125 52.511719 C 230.5 53.023438 230.9375 53.785156 231.5 54.605469 C 234.3125 59.214844 248 71.210938 252.070312 63.632812 C 253.628906 53.355469 249.316406 43.035156 248.738281 32.785156 C 249.734375 33.164062 249.941406 33.917969 250.253906 34.550781 C 258.359375 49.996094 259.335938 67.671875 265.160156 83.9375 C 265.511719 84.859375 266.273438 89.046875 267.570312 86.75 C 271.222656 73.820312 265.429688 61.472656 259.34375 50.378906 C 260.304688 50.226562 260.773438 50.714844 261.191406 51.167969 C 272.460938 62.464844 277.621094 85.460938 269.238281 99.535156 C 264.699219 105.042969 258.078125 108.328125 253.441406 113.8125 C 252.484375 114.859375 251.441406 115.871094 250.28125 116.664062 C 239.546875 123.6875 219.894531 133.273438 220.496094 148.105469 C 220.675781 148.152344 220.664062 148.144531 220.84375 148.191406 C 221.6875 146.65625 223.597656 146.859375 225.054688 146.421875 C 233.074219 145.796875 237.699219 138.609375 245.011719 136.167969 C 251.71875 133.71875 258.6875 131.808594 265.765625 130.914062 C 267.105469 130.886719 268 131.527344 268.289062 132.8125 C 269.265625 137.683594 266.6875 142.425781 265.597656 147.09375 C 263.082031 161.210938 250.238281 171.671875 235.921875 166.746094 C 236.285156 169.035156 236.734375 171.246094 238.429688 172.96875 C 243.761719 178.65625 247.964844 185.699219 255.082031 189.394531 C 256.070312 189.871094 256.675781 190.777344 257.046875 191.789062 C 259.269531 197.824219 259.101562 205.195312 250.785156 204.53125 C 251.421875 205.835938 252.59375 205.445312 251.402344 207.09375 C 247.226562 213.59375 239.292969 210.667969 233.324219 209.019531 C 231.460938 211.769531 229.179688 212.652344 226.273438 214.320312 C 221.757812 216.359375 223.917969 227.730469 224.203125 232.035156 C 226.152344 240.816406 225.222656 251.261719 232.390625 257.816406 C 235.445312 260.835938 238.308594 264.605469 238.335938 269.085938 C 239.796875 288.308594 182.328125 355.484375 173.742188 341.652344 C 168.144531 332.632812 149.722656 307.609375 149.132812 282.257812 C 148.714844 264.421875 153.324219 247.058594 154.324219 229.308594 C 156.316406 216.695312 155 202.910156 161.335938 191.429688 C 164.707031 186.296875 172.476562 163.105469 162.535156 162.347656 C 160.257812 162.070312 157.992188 161.707031 155.75 161.242188 C 145.363281 158.820312 140.027344 147.429688 137.222656 138.046875 C 134.605469 128.390625 140.027344 130.375 147.019531 131.027344 C 139.03125 124.117188 129.0625 119.5625 123.234375 110.339844 C 119.796875 105.050781 114.457031 101.660156 109.214844 98.378906 C 97.375 89.765625 97.964844 63.050781 104.203125 51.007812 Z M 174.765625 148.636719 C 175.234375 143.675781 169.878906 139.230469 165.492188 138.1875 C 171.597656 144.011719 167.769531 146.132812 174.765625 148.636719 Z M 174.765625 148.636719 " fill-opacity="1" fill-rule="nonzero"/></g><g clip-path="url(#3f0ba04770)"><g clip-path="url(#15d818dcae)"><g clip-path="url(#8a991d8b03)"><g clip-path="url(#ff538fbf53)"><path fill="#ffffff" d="M 219.441406 167.6875 C 220.507812 162.484375 224.722656 158.398438 230.460938 158.730469 C 236.457031 159.074219 240.464844 164.492188 240.417969 169.660156 C 240.390625 172.710938 238.949219 175.675781 235.675781 177.464844 C 233.363281 178.726562 230.550781 179.074219 227.941406 178.667969 C 222.28125 177.785156 218.292969 173.289062 219.441406 167.6875 " fill-opacity="1" fill-rule="nonzero"/></g></g></g></g><g clip-path="url(#7013056895)"><g clip-path="url(#5cd37f3443)"><g clip-path="url(#03edc31543)"><g clip-path="url(#6f4bcd60c4)"><g clip-path="url(#504cce397d)"><path fill="#231f20" d="M 220.714844 173.226562 C 221.539062 174.867188 222.933594 176.183594 224.539062 177.058594 C 228.4375 179.183594 234.003906 178.988281 237.296875 175.816406 C 240.347656 172.878906 240.445312 168.246094 238.550781 164.652344 C 237.621094 162.898438 236.199219 161.375 234.472656 160.382812 C 232.675781 159.34375 230.566406 158.917969 228.5 159.164062 C 226.617188 159.390625 224.882812 160.1875 223.464844 161.441406 C 222.035156 162.707031 221.011719 164.394531 220.398438 166.191406 C 220.242188 166.652344 220.121094 167.128906 220.023438 167.605469 C 219.636719 169.515625 219.832031 171.476562 220.714844 173.226562 Z M 218.863281 167.765625 C 219.734375 163.585938 222.6875 159.929688 226.890625 158.746094 C 229.085938 158.128906 231.511719 158.164062 233.664062 158.949219 C 235.714844 159.695312 237.496094 161.058594 238.777344 162.816406 C 241.324219 166.324219 241.886719 171.277344 239.261719 174.898438 C 236.230469 179.085938 230.050781 180.140625 225.367188 178.46875 C 223.441406 177.78125 221.671875 176.617188 220.433594 174.976562 C 219.210938 173.355469 218.597656 171.378906 218.667969 169.355469 C 218.6875 168.820312 218.757812 168.289062 218.863281 167.765625 " fill-opacity="1" fill-rule="nonzero"/></g></g></g></g></g><g clip-path="url(#f37aa822df)"><g clip-path="url(#282e4d32d3)"><g clip-path="url(#98d2368a4c)"><g clip-path="url(#f835c3d00c)"><path fill="#231f20" d="M 227.457031 164.195312 C 227.105469 166.550781 228.761719 169.195312 231.601562 169.539062 C 234.652344 169.90625 236.679688 167.925781 236.636719 165.015625 C 236.582031 161.492188 232.53125 159.605469 229.613281 161.191406 C 228.316406 161.898438 227.632812 163.011719 227.457031 164.195312 " fill-opacity="1" fill-rule="nonzero"/></g></g></g></g><g clip-path="url(#74abcd95bd)"><g clip-path="url(#f7d22c04b5)"><g clip-path="url(#355952aed2)"><g clip-path="url(#20419c1bf5)"><path fill="#ffffff" d="M 228.945312 164.246094 C 228.867188 164.078125 228.84375 163.886719 228.871094 163.699219 C 228.917969 163.378906 229.050781 163.050781 229.28125 162.761719 C 229.691406 162.242188 230.414062 161.847656 231.15625 161.699219 C 231.566406 161.617188 232.03125 161.519531 232.257812 161.8125 C 232.433594 162.039062 232.316406 162.347656 232.023438 162.535156 C 231.59375 162.808594 230.945312 162.730469 230.472656 162.917969 C 229.691406 163.230469 229.40625 163.65625 229.003906 164.359375 C 228.980469 164.324219 228.960938 164.285156 228.945312 164.246094 " fill-opacity="1" fill-rule="nonzero"/></g></g></g></g><g clip-path="url(#d1c3685ccd)"><g clip-path="url(#a2ad0bc3d2)"><g clip-path="url(#a080b308f3)"><g clip-path="url(#3fb441bf44)"><path fill="#231f20" d="M 237.921875 165.367188 C 238.207031 165.988281 238.40625 166.660156 238.558594 167.328125 C 238.875 168.714844 238.953125 170.1875 238.597656 171.578125 C 238.363281 172.5 237.933594 173.363281 237.367188 174.128906 C 237.34375 174.160156 237.171875 174.414062 237.128906 174.316406 C 237.089844 174.214844 237.300781 173.929688 237.351562 173.863281 C 238.847656 171.828125 238.515625 168.890625 237.714844 166.640625 C 237.648438 166.453125 237.554688 166.207031 237.484375 166.054688 C 237.433594 165.945312 237.578125 165.753906 237.632812 165.664062 C 237.648438 165.644531 237.898438 165.320312 237.921875 165.367188 " fill-opacity="1" fill-rule="nonzero"/></g></g></g></g><g clip-path="url(#26ce5c936c)"><g clip-path="url(#7fa5b43d28)"><g clip-path="url(#1d4462ac2b)"><g clip-path="url(#874fa26d42)"><path fill="#ffffff" d="M 193.203125 166.3125 C 194.273438 161.109375 198.484375 157.023438 204.226562 157.355469 C 210.21875 157.699219 214.226562 163.117188 214.179688 168.285156 C 214.152344 171.335938 212.714844 174.300781 209.4375 176.089844 C 207.128906 177.351562 204.316406 177.699219 201.707031 177.292969 C 196.046875 176.410156 192.054688 171.914062 193.203125 166.3125 " fill-opacity="1" fill-rule="nonzero"/></g></g></g></g><g clip-path="url(#5954fb57b4)"><g clip-path="url(#127813b3eb)"><g clip-path="url(#ea03ad81f7)"><g clip-path="url(#77ebd23355)"><g clip-path="url(#2446331ac9)"><path fill="#231f20" d="M 194.476562 171.851562 C 195.304688 173.492188 196.695312 174.808594 198.300781 175.683594 C 202.199219 177.808594 207.769531 177.613281 211.058594 174.441406 C 214.109375 171.503906 214.207031 166.871094 212.3125 163.277344 C 211.386719 161.523438 209.964844 160 208.238281 159.007812 C 206.4375 157.96875 204.328125 157.542969 202.261719 157.789062 C 200.382812 158.015625 198.644531 158.8125 197.230469 160.066406 C 195.800781 161.332031 194.773438 163.019531 194.164062 164.816406 C 194.007812 165.277344 193.882812 165.753906 193.785156 166.230469 C 193.402344 168.140625 193.59375 170.101562 194.476562 171.851562 Z M 192.625 166.390625 C 193.496094 162.210938 196.449219 158.554688 200.652344 157.371094 C 202.851562 156.753906 205.277344 156.789062 207.429688 157.574219 C 209.480469 158.320312 211.257812 159.683594 212.539062 161.441406 C 215.089844 164.949219 215.648438 169.902344 213.027344 173.523438 C 209.992188 177.710938 203.8125 178.765625 199.128906 177.09375 C 197.207031 176.40625 195.433594 175.242188 194.195312 173.601562 C 192.976562 171.980469 192.359375 170.003906 192.433594 167.980469 C 192.449219 167.445312 192.519531 166.914062 192.625 166.390625 " fill-opacity="1" fill-rule="nonzero"/></g></g></g></g></g><g clip-path="url(#4e830ea3be)"><g clip-path="url(#440e8a0f63)"><g clip-path="url(#b8c94861e5)"><g clip-path="url(#aed02eeae7)"><path fill="#231f20" d="M 195.027344 168.839844 C 194.675781 171.195312 196.332031 173.835938 199.171875 174.183594 C 202.222656 174.550781 204.25 172.570312 204.207031 169.65625 C 204.152344 166.136719 200.101562 164.25 197.183594 165.835938 C 195.886719 166.542969 195.203125 167.652344 195.027344 168.839844 " fill-opacity="1" fill-rule="nonzero"/></g></g></g></g><g clip-path="url(#019629eca8)"><g clip-path="url(#c9fa896f41)"><g clip-path="url(#d7febd31f0)"><g clip-path="url(#125caf7bb0)"><path fill="#ffffff" d="M 196.515625 168.890625 C 196.4375 168.722656 196.410156 168.527344 196.441406 168.34375 C 196.488281 168.019531 196.621094 167.695312 196.851562 167.402344 C 197.261719 166.882812 197.984375 166.492188 198.726562 166.34375 C 199.136719 166.261719 199.601562 166.160156 199.828125 166.453125 C 200.003906 166.679688 199.886719 166.992188 199.59375 167.179688 C 199.164062 167.453125 198.515625 167.371094 198.042969 167.5625 C 197.261719 167.875 196.976562 168.300781 196.574219 169.003906 C 196.550781 168.964844 196.53125 168.929688 196.515625 168.890625 " fill-opacity="1" fill-rule="nonzero"/></g></g></g></g><g clip-path="url(#21c8a69628)"><g clip-path="url(#5a0ba66628)"><g clip-path="url(#fac2bf5b53)"><g clip-path="url(#700b14109c)"><path fill="#231f20" d="M 211.683594 163.992188 C 211.972656 164.613281 212.167969 165.285156 212.320312 165.953125 C 212.640625 167.339844 212.71875 168.8125 212.363281 170.203125 C 212.125 171.125 211.695312 171.988281 211.132812 172.753906 C 211.109375 172.785156 210.933594 173.039062 210.894531 172.941406 C 210.851562 172.839844 211.066406 172.554688 211.113281 172.488281 C 212.609375 170.453125 212.277344 167.515625 211.476562 165.265625 C 211.410156 165.078125 211.316406 164.832031 211.246094 164.679688 C 211.195312 164.570312 211.339844 164.378906 211.394531 164.289062 C 211.410156 164.269531 211.660156 163.945312 211.683594 163.992188 " fill-opacity="1" fill-rule="nonzero"/></g></g></g></g><g clip-path="url(#8ea9182dc9)"><g clip-path="url(#c03365259b)"><g clip-path="url(#5dea3db96b)"><g clip-path="url(#3da6f3c892)"><path fill="#2e2a2b" d="M 247.03125 200.769531 C 247.78125 200.664062 248.546875 200.742188 249.285156 200.941406 C 250.027344 201.140625 250.753906 201.492188 251.347656 202.039062 C 251.945312 202.578125 252.363281 203.351562 252.464844 204.144531 C 252.570312 204.941406 252.410156 205.722656 252.082031 206.398438 C 252.097656 205.644531 252.066406 204.921875 251.863281 204.273438 C 251.671875 203.621094 251.308594 203.066406 250.816406 202.613281 C 250.328125 202.160156 249.726562 201.808594 249.082031 201.515625 C 248.4375 201.222656 247.75 200.992188 247.03125 200.769531 " fill-opacity="1" fill-rule="nonzero"/></g></g></g></g><g clip-path="url(#38f7188c4a)"><g clip-path="url(#b1b2b9369a)"><g clip-path="url(#81a352e8d0)"><g clip-path="url(#7e9daf5dfd)"><path fill="#2e2a2b" d="M 219.460938 193.382812 C 218.730469 193.214844 218.019531 193.074219 217.3125 193.003906 C 216.609375 192.933594 215.910156 192.9375 215.261719 193.085938 C 214.609375 193.230469 214.015625 193.53125 213.523438 194 C 213.023438 194.460938 212.640625 195.070312 212.273438 195.730469 C 212.324219 194.980469 212.578125 194.222656 213.066406 193.589844 C 213.550781 192.949219 214.300781 192.492188 215.085938 192.324219 C 215.878906 192.144531 216.679688 192.207031 217.421875 192.402344 C 218.164062 192.601562 218.863281 192.917969 219.460938 193.382812 " fill-opacity="1" fill-rule="nonzero"/></g></g></g></g><g clip-path="url(#8c6b7bcdf0)"><g clip-path="url(#99bbe74027)"><g clip-path="url(#f4cfbd968a)"><g clip-path="url(#f3ef050c85)"><path fill="#2e2a2b" d="M 224.632812 208.242188 C 225.257812 208.765625 225.886719 209.238281 226.546875 209.644531 C 227.207031 210.054688 227.894531 210.390625 228.613281 210.617188 C 229.328125 210.839844 230.074219 210.949219 230.835938 210.925781 C 231.597656 210.90625 232.363281 210.746094 233.148438 210.523438 C 232.511719 211.035156 231.734375 211.386719 230.898438 211.539062 C 230.066406 211.683594 229.1875 211.617188 228.378906 211.363281 C 227.566406 211.105469 226.824219 210.675781 226.1875 210.140625 C 225.558594 209.601562 225.007812 208.972656 224.632812 208.242188 " fill-opacity="1" fill-rule="nonzero"/></g></g></g></g><g clip-path="url(#734afa5453)"><g clip-path="url(#015fd903cb)"><g clip-path="url(#6aae3c2423)"><g clip-path="url(#860336a0fe)"><path fill="#2e2a2b" d="M 253.050781 203.28125 C 253.214844 202.78125 253.375 202.292969 253.46875 201.8125 C 253.5625 201.339844 253.570312 200.84375 253.347656 200.5625 C 253.238281 200.425781 253.054688 200.316406 252.84375 200.234375 C 252.628906 200.148438 252.390625 200.085938 252.144531 200.035156 C 251.65625 199.921875 251.132812 199.847656 250.625 199.683594 C 251.152344 199.609375 251.667969 199.5625 252.203125 199.582031 C 252.472656 199.597656 252.746094 199.628906 253.019531 199.710938 C 253.292969 199.792969 253.589844 199.933594 253.808594 200.203125 C 254.023438 200.476562 254.089844 200.808594 254.085938 201.105469 C 254.082031 201.40625 254.015625 201.683594 253.917969 201.941406 C 253.71875 202.453125 253.429688 202.90625 253.050781 203.28125 " fill-opacity="1" fill-rule="nonzero"/></g></g></g></g><g clip-path="url(#0b12b17182)"><g clip-path="url(#a38ea92384)"><g clip-path="url(#74dca4fa18)"><g clip-path="url(#d89c8a08d3)"><path fill="#2e2a2b" d="M 211.019531 192.019531 C 210.878906 191.507812 210.851562 190.964844 210.9375 190.421875 C 210.984375 190.152344 211.066406 189.878906 211.210938 189.617188 C 211.355469 189.359375 211.578125 189.105469 211.902344 188.976562 C 212.226562 188.851562 212.554688 188.875 212.828125 188.941406 C 213.109375 189.007812 213.363281 189.117188 213.601562 189.242188 C 214.078125 189.492188 214.5 189.789062 214.917969 190.113281 C 214.398438 190.007812 213.90625 189.808594 213.425781 189.660156 C 213.1875 189.582031 212.949219 189.515625 212.722656 189.484375 C 212.496094 189.449219 212.28125 189.453125 212.121094 189.515625 C 211.789062 189.648438 211.546875 190.082031 211.390625 190.539062 C 211.230469 191 211.125 191.503906 211.019531 192.019531 " fill-opacity="1" fill-rule="nonzero"/></g></g></g></g><g clip-path="url(#977f28bd15)"><g clip-path="url(#3a32751b00)"><g clip-path="url(#7e5cc6c96b)"><g clip-path="url(#3d99d87e83)"><path fill="#f03852" d="M 216.050781 196.113281 C 207.972656 196.328125 201.867188 208.945312 207.726562 212.796875 C 212.710938 216.070312 216.585938 214.089844 218.019531 209.878906 C 219.230469 206.316406 221.332031 204.457031 223.574219 203.550781 L 218.835938 199.777344 L 216.050781 196.113281 " fill-opacity="1" fill-rule="nonzero"/></g></g></g></g><g clip-path="url(#12a689e7e6)"><g clip-path="url(#c0457ac59f)"><g clip-path="url(#799241fdcc)"><g clip-path="url(#147f25da7c)"><path fill="#2e2a2b" d="M 215.910156 196.410156 C 211.292969 196.628906 207.300781 201.113281 206.085938 205.382812 C 205.175781 208.585938 205.832031 211.199219 207.886719 212.550781 C 208.882812 213.203125 209.859375 213.660156 210.792969 213.910156 C 213.976562 214.765625 216.570312 213.222656 217.742188 209.78125 C 218.773438 206.742188 220.546875 204.621094 223.011719 203.476562 L 218.625 199.980469 Z M 210.644531 214.476562 C 209.644531 214.210938 208.609375 213.726562 207.566406 213.042969 C 205.316406 211.5625 204.550781 208.640625 205.523438 205.222656 C 206.789062 200.765625 210.910156 195.957031 216.042969 195.820312 L 216.195312 195.816406 L 219.046875 199.570312 L 224.152344 203.636719 L 223.6875 203.820312 C 221.148438 204.84375 219.335938 206.914062 218.296875 209.972656 C 217.035156 213.675781 214.101562 215.40625 210.644531 214.476562 " fill-opacity="1" fill-rule="nonzero"/></g></g></g></g><g clip-path="url(#258ba4568c)"><g clip-path="url(#264eb98b49)"><g clip-path="url(#ba00e754c1)"><g clip-path="url(#2475c8e8f0)"><path fill="#2e2a2b" d="M 230.710938 206.753906 L 230.582031 206.71875 C 223.339844 204.75 219.324219 201.1875 217.222656 198.53125 C 214.921875 195.621094 214.371094 193.195312 214.347656 193.09375 L 215.109375 192.925781 C 215.117188 192.949219 215.65625 195.308594 217.867188 198.082031 C 219.898438 200.640625 223.796875 204.082031 230.847656 205.980469 C 244.390625 209.582031 250.941406 202.617188 251.003906 202.546875 L 251.582031 203.070312 C 251.511719 203.148438 249.824219 204.972656 246.371094 206.34375 C 243.230469 207.589844 237.964844 208.667969 230.710938 206.753906 " fill-opacity="1" fill-rule="nonzero"/></g></g></g></g><g clip-path="url(#68f17aed89)"><g clip-path="url(#0a1453229b)"><g clip-path="url(#ae2979acb2)"><g clip-path="url(#f16f01ab20)"><path fill="#972230" d="M 218.15625 199.867188 C 217.042969 200.675781 216.007812 201.5625 215.042969 202.507812 C 214.082031 203.460938 213.203125 204.480469 212.4375 205.582031 C 211.675781 206.679688 211.023438 207.851562 210.523438 209.101562 C 210.023438 210.347656 209.679688 211.664062 209.457031 213.023438 C 209.355469 211.644531 209.535156 210.238281 209.949219 208.898438 C 210.359375 207.558594 210.992188 206.28125 211.796875 205.132812 C 212.601562 203.980469 213.566406 202.953125 214.636719 202.058594 C 215.707031 201.171875 216.878906 200.394531 218.15625 199.867188 " fill-opacity="1" fill-rule="nonzero"/></g></g></g></g></svg>